{"title":"Office.Space.1999.PROPER.720p.BRRip.XviD.AC3-PsychoLogic","uid":6544771,"size":2234450459,"categoryP":"video","categoryS":"hd___movies","magnet":"?xt=urn:btih:03089f808e2eb916a2e704790e88724ce291b91c&amp;dn=Office.Space.1999.PROPER.720p.BRRip.XviD.AC3-PsychoLogic&amp;tr=udp%3A%2F%2Ftracker.openbittorrent.com%3A80&amp;tr=udp%3A%2F%2Fopen.demonii.com%3A1337&amp;tr=udp%3A%2F%2Ftracker.coppersurfer.tk%3A6969&amp;tr=udp%3A%2F%2Fexodus.desync.com%3A6969","seeders":1,"leechers":1,"uploader":"PsychoLogic","files":13,"time":1310811445,"description":"Release Information:\n\nOffice.Space.1999.PROPER.720p.BRRip.XviD.AC3-PsychoLogic\n\nPROPER note                      : Audio in previous release wasn't encoded correctly. Dialogue came from the right speakers and surround from the left.\n\nSource                           : Office.Space.1999.BluRay.1080p.DTS.x264.dxva-EuReKA\nSubtitles                        : Czech, Dutch, English, Finnish, French, Hungarian, Portuguese, Slovenian, Spanish\nLanguage                         : English\nEncoded By                       : PsychoLogic\nSample Included                  : Yes\n\nMovie Information                : http://www.imdb.com/title/tt0151804/\nGenre                            : Comedy | Crime\nDirectors                        : Mike Judge\nCast                             : Ron Livingston, Jennifer Aniston and David Herman\nPlot                             : Comedic tale of company workers who hate their jobs and decide to rebel against their greedy boss. \n\nGeneral\nFormat                           : AVI\nFormat/Info                      : Audio Video Interleave\nFormat profile                   : OpenDML\nFile size                        : 2.05 GiB\nDuration                         : 1h 29mn\nOverall bit rate                 : 3 292 Kbps\nWriting application              : VirtualDubMod 1.5.10.2 (build 2540/release)\nWriting library                  : VirtualDubMod build 2540/release\n\nVideo\nID                               : 0\nFormat                           : MPEG-4 Visual\nFormat profile                   : Advanced Simple@L5\nFormat settings, BVOP            : 2\nFormat settings, QPel            : No\nFormat settings, GMC             : No warppoints\nFormat settings, Matrix          : Default (H.263)\nCodec ID                         : XVID\nCodec ID/Hint                    : XviD\nDuration                         : 1h 29mn\nBit rate                         : 2 832 Kbps\nWidth                            : 1 280 pixels\nHeight                           : 688 pixels\nDisplay aspect ratio             : 1.860\nFrame rate                       : 23.976 fps\nColor space                      : YUV\nChroma subsampling               : 4:2:0\nBit depth                        : 8 bits\nScan type                        : Progressive\nCompression mode                 : Lossy\nBits/(Pixel*Frame)               : 0.134\nStream size                      : 1.77 GiB (86%)\nWriting library                  : XviD 1.2.1 (UTC 2008-12-04)\n\nAudio\nID                               : 1\nFormat                           : AC-3\nFormat/Info                      : Audio Coding 3\nMode extension                   : CM (complete main)\nCodec ID                         : 2000\nDuration                         : 1h 29mn\nBit rate mode                    : Constant\nBit rate                         : 448 Kbps\nChannel(s)                       : 6 channels\nChannel positions                : Front: L C R, Side: L R, LFE\nSampling rate                    : 48.0 KHz\nBit depth                        : 16 bits\nCompression mode                 : Lossy\nStream size                      : 286 MiB (14%)\nAlignment                        : Split accross interleaves\nInterleave, duration             : 42 ms (1.00 video frame)\nInterleave, preload duration     : 500 ms\n\n","torrent":{"xt":"urn:btih:03089f808e2eb916a2e704790e88724ce291b91c","amp;dn":"Office.Space.1999.PROPER.720p.BRRip.XviD.AC3-PsychoLogic","amp;tr":["udp%3A%2F%2Ftracker.openbittorrent.com%3A80","udp%3A%2F%2Fopen.demonii.com%3A1337","udp%3A%2F%2Ftracker.coppersurfer.tk%3A6969","udp%3A%2F%2Fexodus.desync.com%3A6969"],"infoHash":"03089f808e2eb916a2e704790e88724ce291b91c","infoHashBuffer":{"type":"Buffer","data":[3,8,159,128,142,46,185,22,162,231,4,121,14,136,114,76,226,145,185,28]},"announce":[],"urlList":[]}}